<svg width="378.14" height="252.09" version="1.1" viewBox="0 0 378.14 252.09" xmlns="http://www.w3.org/2000/svg"><g transform="translate(-348.07 -402.52)"><path d="m348.07 402.52h378.14v252.09h-378.14z" fill="#254aa5"/><g transform="matrix(1.3333 0 0 -1.3333 529.09 457.45)"><path d="m0 0 5.984 4.367 5.985-4.367-2.278 7.062 6.079 4.368h-7.493l-2.293 7.148-2.293-7.156-7.488 8e-3 6.074-4.368z" fill="#fff200"/></g><g transform="matrix(1.3333 0 0 -1.3333 487.79 468.55)"><path d="m0 0 5.984 4.367 5.981-4.367-2.274 7.062 6.075 4.368h-7.493l-2.293 7.156-2.292-7.164-7.489 8e-3 6.074-4.368z" fill="#fff200"/></g><g transform="matrix(1.3333 0 0 -1.3333 465.56 474.05)"><path d="m0 0-2.293-7.164-7.488 8e-3 6.074-4.367-2.277-7.063 5.984 4.367 5.984-4.367-2.277 7.063 6.074 4.367h-7.488z" fill="#fff200"/></g><g transform="matrix(1.3333 0 0 -1.3333 454.48 534.24)"><path d="m0 0 5.98-4.367-2.273 7.062 6.074 4.367h-7.488l-2.293 7.157-2.293-7.172-7.492 0.015 6.078-4.367-2.277-7.062z" fill="#fff200"/></g><g transform="matrix(1.3333 0 0 -1.3333 468.62 566.19)"><path d="m0 0-2.293 7.156-2.293-7.164-7.488 8e-3 6.074-4.367-2.277-7.063 5.984 4.375 5.984-4.375-2.277 7.063 6.074 4.367z" fill="#fff200"/></g><g transform="matrix(1.3333 0 0 -1.3333 498.89 596.46)"><path d="m0 0-2.293 7.148-2.289-7.156-7.492 8e-3 6.074-4.367-2.273-7.063 5.984 4.368 5.98-4.368-2.273 7.063 6.074 4.367z" fill="#fff200"/></g><g transform="matrix(1.3333 0 0 -1.3333 540.13 607.43)"><path d="m0 0-2.293 7.156-2.289-7.164-7.492 8e-3 6.074-4.367-2.273-7.063 5.984 4.368 5.98-4.368-2.277 7.063 6.078 4.367z" fill="#fff200"/></g><g transform="matrix(1.3333 0 0 -1.3333 581.37 596.46)"><path d="m0 0-2.289 7.148-2.297-7.156-7.484 8e-3 6.07-4.367-2.273-7.063 5.984 4.368 5.984-4.368-2.281 7.063 6.078 4.367z" fill="#fff200"/></g><g transform="matrix(1.3333 0 0 -1.3333 611.65 566.19)"><path d="m0 0-2.297 7.156-2.297-7.164-7.484 8e-3 6.078-4.367-2.281-7.063 5.984 4.375 5.985-4.375-2.282 7.063 6.078 4.367z" fill="#fff200"/></g><g transform="matrix(1.3333 0 0 -1.3333 632.6 524.71)"><path d="m0 0h-7.492l-2.297 7.156-2.289-7.164-7.492 8e-3 6.078-4.367-2.274-7.063 5.977 4.375 5.984-4.375-2.273 7.063z" fill="#fff200"/></g><g transform="matrix(1.3333 0 0 -1.3333 600.61 498.7)"><path d="m0 0 5.984 4.367 5.985-4.367-2.281 7.062 6.078 4.36h-7.485l-2.297 7.156-2.296-7.164-7.485 8e-3 6.078-4.36z" fill="#fff200"/></g><g transform="matrix(1.3333 0 0 -1.3333 578.43 443.77)"><path d="m0 0-2.289-7.164-7.492 0.016 6.07-4.375-2.273-7.063 5.992 4.375 5.976-4.375-2.273 7.063 6.078 4.375h-7.5z" fill="#fff200"/></g></g></svg>
